***********************************************************************************
                            The Miracle of Our Lady Fatima
***********************************************************************************
General
*********
Complete name                    : The Miracle of Our Lady Fatima.avi
Format                           : AVI
Format/Info                      : Audio Video Interleave
File size                        : 1.03 GiB
Duration                         : 1h 47mn
Overall bit rate                 : 1 370 Kbps
Writing library                  : VirtualDub build 24469/release
***********************************************************************************
PLOT :
*******
In 1917, three shepherd children living just outside Fatima, Portugal have visions of a lovely lady in a cloud. The anticlerical government wishes to squelch the Church; reports of religious experiences are cause for serious concern. Yet the children stand by their story, and the message of peace and hope the Lady brings. In the last vision, attended by thousands of people, the Lady proves her reality with a spectacular miracle that is seen by everyone present. Based on actual events at Fatima in the summer of 1917..
***********************************************************************************
CAST:
******
Gilbert Roland	 ... 	Hugo da Silva

Angela Clarke	... 	Maria Rosa Abóbora dos Santos

Frank Silvera	... 	Council Administrator Artur dos Santos

Jay Novello	... 	António Abóbora dos Santos

Richard Hale	... 	Father Ferreira

Norman Rice	... 	Manuel Marto

Frances Morris	... 	Olímpia Marto (as Francis Morris)

Carl Milletaire	... 	District Magistrate (as Carl Millitaire)

Susan Whitney	... 	Lúcia Abóbora dos Santos

Sherry Jackson	... 	Jacinta Marto

Sammy Ogg	... 	Francisco Marto
**********************************************************************************
                         http://www.imdb.com/title/tt0044905/
**********************************************************************************
Video
ID                               : 0
Format                           : MPEG-4 Visual
Format profile                   : AdvancedSimple@L5
Format settings, BVOP            : Yes
Format settings, QPel            : No
Format settings, GMC             : No warppoints
Format settings, Matrix          : Default (H.263)
Muxing mode                      : Packed bitstream
Codec ID                         : XVID
Codec ID/Hint                    : XviD
Duration                         : 1h 47mn
Bit rate                         : 1 045 Kbps
Width                            : 720 pixels
Height                           : 480 pixels
Display aspect ratio             : 1.500
Frame rate                       : 29.970 fps
Standard                         : NTSC
Resolution                       : 24 bits
Colorimetry                      : 4:2:0
Scan type                        : Progressive
Bits/(Pixel*Frame)               : 0.101
Stream size                      : 804 MiB (76%)
Writing library                  : XviD 1.2.0.dev47 (UTC 2006-11-01)

Audio
ID                               : 1
Format                           : MPEG Audio
Format version                   : Version 1
Format profile                   : Layer 3
Codec ID                         : 55
Codec ID/Hint                    : MP3
Duration                         : 1h 45mn
Bit rate mode                    : Constant
Bit rate                         : 320 Kbps
Channel(s)                       : 2 channels
Sampling rate                    : 44.1 KHz
Resolution                       : 16 bits
Stream size                      : 240 MiB (23%)
Alignment                        : Split accross interleaves
Interleave, duration             : 31 ms (0.93 video frame)
Interleave, preload duration     : 500 ms
Writing library                  : LAME3.97

*********************************************************************************